<svg width="35" height="35" viewBox="0 0 35 35" fill="none" xmlns="http://www.w3.org/2000/svg">
<path d="M17.5 13.125C15.1288 13.125 13.125 15.1288 13.125 17.5C13.125 19.8713 15.1288 21.875 17.5 21.875C19.8713 21.875 21.875 19.8713 21.875 17.5C21.875 15.1288 19.8713 13.125 17.5 13.125Z" fill="black"/>
<path d="M29.1666 7.29163H25.3954L21.4477 3.34392C21.3125 3.20823 21.1518 3.10062 20.9748 3.02729C20.7979 2.95396 20.6082 2.91635 20.4166 2.91663H14.5833C14.3917 2.91635 14.202 2.95396 14.0251 3.02729C13.8481 3.10062 13.6874 3.20823 13.5523 3.34392L9.60454 7.29163H5.83329C4.22475 7.29163 2.91663 8.59975 2.91663 10.2083V26.25C2.91663 27.8585 4.22475 29.1666 5.83329 29.1666H29.1666C30.7752 29.1666 32.0833 27.8585 32.0833 26.25V10.2083C32.0833 8.59975 30.7752 7.29163 29.1666 7.29163ZM17.5 24.7916C13.5479 24.7916 10.2083 21.452 10.2083 17.5C10.2083 13.5479 13.5479 10.2083 17.5 10.2083C21.452 10.2083 24.7916 13.5479 24.7916 17.5C24.7916 21.452 21.452 24.7916 17.5 24.7916Z" fill="black"/>
</svg>
