<svg width="35" height="35" viewBox="0 0 35 35" fill="none" xmlns="http://www.w3.org/2000/svg">
<path d="M17.5 14.5833C15.8959 14.5833 14.5834 15.8958 14.5834 17.5C14.5834 19.1041 15.8959 20.4166 17.5 20.4166C19.1042 20.4166 20.4167 19.1041 20.4167 17.5C20.4167 15.8958 19.1042 14.5833 17.5 14.5833ZM26.25 14.5833C24.6459 14.5833 23.3334 15.8958 23.3334 17.5C23.3334 19.1041 24.6459 20.4166 26.25 20.4166C27.8542 20.4166 29.1667 19.1041 29.1667 17.5C29.1667 15.8958 27.8542 14.5833 26.25 14.5833ZM8.75004 14.5833C7.14587 14.5833 5.83337 15.8958 5.83337 17.5C5.83337 19.1041 7.14587 20.4166 8.75004 20.4166C10.3542 20.4166 11.6667 19.1041 11.6667 17.5C11.6667 15.8958 10.3542 14.5833 8.75004 14.5833Z" fill="black"/>
</svg>
