<svg width="35" height="35" viewBox="0 0 35 35" fill="none" xmlns="http://www.w3.org/2000/svg">
<path d="M8.75004 17.5H5.83337C5.83337 23.4383 10.2973 28.3442 16.0417 29.066V32.0833H18.9584V29.066C24.7027 28.3442 29.1667 23.4398 29.1667 17.5H26.25C26.25 22.3256 22.3257 26.25 17.5 26.25C12.6744 26.25 8.75004 22.3256 8.75004 17.5Z" fill="black"/>
<path d="M11.6666 17.4999C11.6666 20.717 14.2829 23.3333 17.5 23.3333C20.717 23.3333 23.3333 20.717 23.3333 17.4999H20.4166V14.5833H23.3333V11.6666H20.4166V8.74994H23.3333C23.3333 5.51682 20.7302 2.88599 17.5306 2.88599C17.4279 2.8866 17.3257 2.89883 17.2258 2.92244C15.7284 2.99504 14.3163 3.64046 13.2816 4.72517C12.2468 5.80987 11.6686 7.25084 11.6666 8.74994H17.5V11.6666H11.6666V14.5833H17.5V17.4999H11.6666Z" fill="black"/>
</svg>
