<svg width="35" height="35" viewBox="0 0 35 35" fill="none" xmlns="http://www.w3.org/2000/svg">
<path d="M12.6977 28.7393L26.25 15.187L19.8129 8.74996L6.26063 22.3022C6.07405 22.4891 5.94152 22.7229 5.87708 22.9789L4.375 30.625L12.0196 29.1229C12.2762 29.0587 12.511 28.926 12.6977 28.7393ZM30.625 10.812C31.1718 10.2651 31.479 9.52335 31.479 8.74996C31.479 7.97656 31.1718 7.23483 30.625 6.68787L28.3121 4.37496C27.7651 3.82817 27.0234 3.521 26.25 3.521C25.4766 3.521 24.7349 3.82817 24.1879 4.37496L21.875 6.68787L28.3121 13.125L30.625 10.812Z" fill="black"/>
</svg>
