<svg width="35" height="35" viewBox="0 0 35 35" fill="none" xmlns="http://www.w3.org/2000/svg">
<path d="M5.83329 30.625H29.0106C30.6191 30.625 31.9272 29.3169 31.9272 27.7083V7.29167C31.9272 5.68313 30.6191 4.375 29.0106 4.375H5.83329C4.22475 4.375 2.91663 5.68313 2.91663 7.29167V27.7083C2.91663 29.3169 4.22475 30.625 5.83329 30.625ZM5.83329 27.7083V20.4167H11.6666V27.7083H5.83329ZM20.4166 10.2083V17.5H14.5833V10.2083H20.4166ZM11.6666 10.2083V17.5H5.83329V10.2083H11.6666ZM14.5833 27.7083V20.4167H20.4166V27.7083H14.5833ZM23.3333 27.7083V20.4167H29.012V27.7083H23.3333ZM29.0106 17.5H23.3333V10.2083H29.0106V17.5Z" fill="black"/>
</svg>
