<svg width="35" height="35" viewBox="0 0 35 35" fill="none" xmlns="http://www.w3.org/2000/svg">
<path d="M13.125 16.0035C13.125 15.2192 13.7609 14.5834 14.5452 14.5834H21.875C24.2871 14.5834 26.25 16.5463 26.25 18.9584C26.25 21.3704 24.2871 23.3334 21.875 23.3334H18.9584C18.153 23.3334 17.5 23.9863 17.5 24.7917C17.5 25.5971 18.153 26.25 18.9584 26.25H21.875C25.8957 26.25 29.1667 22.979 29.1667 18.9584C29.1667 14.9377 25.8957 11.6667 21.875 11.6667H14.5452C13.7609 11.6667 13.125 11.0309 13.125 10.2465C13.125 9.0557 11.7476 8.39366 10.8177 9.13756L7.78555 11.5633C6.78473 12.3639 6.78473 13.8861 7.78555 14.6868L10.8177 17.1125C11.7476 17.8564 13.125 17.1943 13.125 16.0035Z" fill="black"/>
</svg>
